<svg width="80" height="80" viewBox="0 0 80 80" fill="none" xmlns="http://www.w3.org/2000/svg">
<path d="M28.125 14.375H27.5C27.8438 14.375 28.125 14.0938 28.125 13.75V14.375ZM28.125 14.375H51.875V13.75C51.875 14.0938 52.1562 14.375 52.5 14.375H51.875V20H57.5V13.75C57.5 10.9922 55.2578 8.75 52.5 8.75H27.5C24.7422 8.75 22.5 10.9922 22.5 13.75V20H28.125V14.375ZM67.5 20H12.5C11.1172 20 10 21.1172 10 22.5V25C10 25.3438 10.2812 25.625 10.625 25.625H15.3437L17.2734 66.4844C17.3984 69.1484 19.6016 71.25 22.2656 71.25H57.7344C60.4062 71.25 62.6016 69.1562 62.7266 66.4844L64.6562 25.625H69.375C69.7188 25.625 70 25.3438 70 25V22.5C70 21.1172 68.8828 20 67.5 20ZM57.1328 65.625H22.8672L20.9766 25.625H59.0234L57.1328 65.625Z" fill="#EE454F"/>
</svg>
