<svg width="24" height="24" viewBox="0 0 24 24" fill="none" xmlns="http://www.w3.org/2000/svg">
<path d="M15.5742 5.98828V4.32422H15.75V4.3125V4.30078C15.6533 4.30078 15.5742 4.22165 15.5742 4.125H15.5625H15.5508V4.30078H8.44922V4.125H8.4375H8.42578C8.42578 4.22165 8.34665 4.30078 8.25 4.30078V4.3125V4.32422H8.42578V5.98828H6.76172V4.125C6.76172 3.30413 7.42913 2.63672 8.25 2.63672H15.75C16.5709 2.63672 17.2383 3.30413 17.2383 4.125V5.98828H15.5742ZM8.4375 6.01172H8.44922H15.5508H15.5625H17.25H17.2617H20.25C20.6584 6.01172 20.9883 6.34163 20.9883 6.75V7.5C20.9883 7.59665 20.9092 7.67578 20.8125 7.67578H19.3969H19.3857L19.3852 7.68695L18.8063 19.9448L18.818 19.9453L18.8063 19.9448C18.7691 20.7401 18.1156 21.3633 17.3203 21.3633H6.67969C5.88673 21.3633 5.23094 20.7377 5.19374 19.9448L5.18203 19.9453L5.19374 19.9448L4.61483 7.68695L4.6143 7.67578H4.60312H3.1875C3.09085 7.67578 3.01172 7.59665 3.01172 7.5V6.75C3.01172 6.34163 3.34163 6.01172 3.75 6.01172H6.73828H6.75H8.4375ZM17.1398 19.6992H17.151L17.1515 19.6881L17.7187 7.68805L17.7193 7.67578H17.707H6.29297H6.28068L6.28126 7.68805L6.84845 19.6881L6.84898 19.6992H6.86016H17.1398Z" fill="#DB2438" stroke="#242828" stroke-width="0.0234375"/>
</svg>
